<?xml version="1.0" standalone="no"?>
<!DOCTYPE svg PUBLIC "-//W3C//DTD SVG 20010904//EN"
 "http://www.w3.org/TR/2001/REC-SVG-20010904/DTD/svg10.dtd">
<svg version="1.0" xmlns="http://www.w3.org/2000/svg"
 width="1056.000000pt" height="660.000000pt" viewBox="0 0 1056.000000 660.000000"
 preserveAspectRatio="xMidYMid meet">

<g transform="translate(0.000000,660.000000) scale(0.100000,-0.100000)"
fill="#000000" stroke="none">
<path d="M8702 6588 c-16 -20 -72 -134 -72 -147 0 -19 -32 -114 -42 -128 -6
-7 -6 -18 -2 -24 4 -7 3 -9 -3 -6 -26 16 -85 -66 -196 -273 -22 -41 -57 -106
-79 -145 -22 -39 -41 -86 -42 -105 -2 -39 -10 -54 -44 -90 -22 -23 -86 -119
-120 -180 -44 -77 -122 -242 -122 -257 0 -20 -60 -153 -69 -153 -4 0 -39 20
-78 45 -282 175 -650 304 -987 345 -111 14 -370 14 -498 0 -226 -23 -455 -89
-667 -191 -135 -66 -184 -97 -174 -112 4 -6 0 -8 -10 -4 -10 3 -17 2 -17 -3 0
-6 -7 -10 -15 -10 -7 0 -19 -8 -24 -17 -6 -10 -11 -14 -11 -10 0 4 -6 2 -14
-5 -8 -7 -11 -17 -8 -22 3 -5 -2 -7 -11 -3 -10 3 -17 3 -17 -1 0 -16 -66 -79
-79 -74 -8 3 -11 0 -7 -6 3 -6 -21 -36 -54 -68 -65 -62 -173 -206 -263 -351
-92 -150 -208 -417 -247 -573 -12 -47 -30 -116 -40 -155 -10 -38 -24 -108 -29
-155 -6 -47 -18 -121 -26 -165 -15 -88 -22 -175 -31 -425 -8 -196 -17 -218
-69 -165 l-25 24 0 -24 c0 -43 31 -236 56 -349 13 -60 24 -111 24 -113 0 -16
-126 34 -150 59 -31 34 -67 119 -81 193 -14 75 -19 338 -6 351 4 4 39 -9 78
-30 l70 -38 -7 154 c-4 93 -11 156 -18 160 -19 13 -50 -3 -84 -43 -75 -87
-162 -52 -162 66 0 51 16 89 52 121 45 42 98 46 171 15 l44 -19 21 142 c11 77
31 182 43 233 22 90 22 92 3 120 -10 15 -17 32 -16 37 2 5 -7 19 -19 32 -12
13 -20 27 -17 30 8 7 58 -25 58 -37 0 -5 8 -9 18 -9 14 0 28 27 61 113 99 256
239 482 447 725 l37 42 -244 0 c-134 0 -271 -5 -304 -10 -66 -11 -248 -96
-299 -140 -17 -15 -49 -39 -71 -53 -22 -15 -62 -47 -90 -71 -96 -85 -132 -116
-139 -116 -4 0 -24 -12 -46 -26 -21 -14 -43 -23 -48 -20 -5 3 -16 -1 -23 -10
-24 -29 -299 -158 -420 -198 -125 -40 -292 -73 -439 -86 -180 -15 -164 -20
-206 60 -20 39 -38 69 -40 67 -2 -2 8 -25 21 -52 45 -89 51 -86 -157 -84 -113
1 -175 5 -163 10 13 6 7 6 -19 2 -26 -4 -37 -2 -32 5 12 19 -260 24 -992 18
-657 -6 -791 -10 -872 -31 -14 -4 -63 -10 -110 -13 -81 -6 -83 -7 -35 -13 28
-3 -53 -7 -180 -8 -252 -2 -275 -15 -45 -24 80 -4 192 -10 250 -13 158 -11 82
-23 -197 -31 l-233 -6 0 -119 0 -118 35 0 c19 0 35 -4 35 -9 0 -6 -16 -7 -35
-4 l-35 6 0 -142 0 -141 83 5 c189 12 2197 38 3016 39 709 1 885 -2 889 -12 2
-7 18 -19 36 -26 25 -10 36 -23 44 -52 17 -62 38 -114 50 -126 7 -7 12 -17 12
-23 0 -13 87 -123 144 -183 l41 -43 5 -192 c3 -105 4 -198 2 -204 -6 -18 -34
-16 -74 4 -18 9 -40 19 -48 23 -21 9 -57 87 -65 140 -7 50 -35 120 -47 120 -4
0 -8 5 -8 11 0 19 -61 89 -77 89 -9 0 -13 6 -9 15 3 8 9 21 12 29 14 36 -98
83 -122 51 -6 -8 -14 -12 -17 -8 -4 3 -7 -10 -7 -31 0 -23 4 -35 10 -31 6 4
28 4 50 0 38 -6 39 -8 50 -62 14 -64 7 -114 -18 -135 -22 -19 -63 -29 -80 -19
-16 9 -28 458 -15 549 10 61 -1 88 -13 35 -3 -16 -15 -47 -25 -71 -14 -30 -20
-69 -22 -128 -2 -90 -1 -88 -59 -84 -29 2 -89 -25 -101 -46 -4 -8 -20 -14 -35
-14 -31 0 -47 -9 -55 -30 -4 -10 -6 -8 -6 6 -1 29 -14 32 -94 28 -59 -4 -67
-2 -67 14 0 27 -85 95 -143 114 -29 9 -80 18 -115 20 l-64 3 6 30 c4 19 3 25
-3 16 -6 -9 -11 11 -16 57 -4 43 -13 76 -22 83 -15 14 -894 3 -2193 -26 -349
-8 -679 -15 -732 -15 l-98 0 0 -45 0 -45 53 0 c28 0 353 7 722 15 369 8 893
19 1165 25 272 5 609 12 747 15 l252 6 5 -23 c6 -27 26 -281 26 -322 0 -23 -3
-27 -12 -18 -7 7 -17 12 -24 12 -6 0 -55 20 -107 45 -53 25 -101 45 -107 45
-26 0 -7 28 40 59 l35 22 -36 -5 -36 -6 -16 52 c-15 50 -15 51 -16 18 -1 -19
8 -156 19 -305 27 -362 30 -326 -31 -353 -60 -26 -69 -27 -69 -7 0 8 -4 15 -9
15 -5 0 -14 13 -21 29 -6 16 -26 42 -43 57 l-31 29 27 -33 c36 -45 54 -106 37
-127 -16 -20 -93 -20 -110 0 -7 8 -16 13 -20 10 -4 -3 -13 2 -20 10 -7 8 -27
17 -46 21 -19 3 -44 14 -57 24 -12 10 -38 20 -57 22 -30 2 -35 0 -38 -19 -5
-32 -24 -34 -77 -8 -26 12 -57 20 -68 17 -35 -9 -9 17 39 39 24 12 44 25 44
30 0 4 19 13 43 20 23 6 51 15 62 20 11 5 43 10 70 12 28 3 14 3 -30 2 -90 -3
-145 -13 -145 -26 0 -5 -8 -9 -18 -9 -27 0 -220 -139 -195 -140 4 0 1 -6 -8
-13 -9 -7 -24 -28 -34 -47 -10 -18 -23 -40 -31 -47 -21 -21 -43 -115 -39 -162
3 -24 14 -63 26 -87 21 -45 85 -104 112 -104 8 0 17 -4 19 -9 2 -7 51 -18 89
-21 4 0 10 -11 13 -25 5 -19 13 -25 35 -25 16 0 36 -3 45 -6 25 -10 8 -24 -27
-23 l-32 1 30 8 c26 7 23 8 -22 9 -43 1 -51 -2 -47 -14 4 -10 0 -15 -13 -15
-11 0 -28 -10 -39 -22 l-19 -21 33 6 c18 4 32 2 32 -3 0 -6 -9 -10 -20 -10
-13 0 -18 -5 -14 -15 5 -12 -3 -15 -37 -15 -31 0 -40 -3 -29 -10 13 -8 13 -10
0 -14 -8 -3 -28 -7 -45 -9 -16 -2 -1 -5 34 -6 76 -1 77 -10 3 -12 -70 -3 -78
-19 -10 -20 29 -1 42 -3 28 -6 -78 -12 -90 -15 -85 -23 5 -8 -35 -16 -120 -23
-34 -3 -31 -4 13 -5 60 -2 63 -21 4 -24 -30 -1 -27 -3 18 -8 45 -6 49 -7 20
-9 -81 -6 -85 -19 -5 -21 91 -2 89 -6 -7 -15 -38 -4 -68 -11 -68 -16 0 -6 9
-8 19 -4 11 3 22 1 26 -5 4 -6 -6 -10 -24 -10 -37 0 -38 5 -46 215 -3 88 -8
201 -10 250 -3 50 -7 151 -10 225 -4 118 -13 257 -20 328 -1 12 -5 25 -9 30
-4 4 -7 3 -6 -3 6 -29 -2 -35 -48 -35 -26 0 -62 -4 -79 -9 -25 -7 -40 -5 -69
10 -21 10 -53 22 -72 25 -20 4 -77 26 -128 50 -100 47 -117 51 -150 31 -12 -6
-44 -24 -72 -39 -28 -15 -58 -38 -66 -50 -9 -12 -18 -19 -22 -16 -9 10 -84
-32 -84 -47 0 -7 -17 -15 -38 -19 -55 -9 -62 -8 -63 12 0 15 -1 15 -7 1 -9
-21 -38 -16 -60 9 -9 10 -29 22 -44 26 -26 6 -28 10 -29 59 l-1 52 -9 -40 c-4
-22 -8 -83 -8 -136 -1 -53 -4 -163 -7 -246 l-7 -150 -76 -21 c-42 -12 -124
-35 -183 -51 -103 -29 -111 -29 -205 -20 -54 6 -108 15 -120 19 -22 9 -23 7
-23 -36 0 -36 3 -44 12 -37 7 6 31 13 53 17 22 4 49 9 60 12 38 8 -40 -25 -82
-36 l-43 -11 0 -111 c0 -104 1 -110 18 -97 44 33 61 53 55 63 -3 6 -3 8 2 4 4
-4 17 4 28 18 18 24 18 27 3 42 -15 15 -16 15 -16 -1 0 -10 -4 -15 -10 -12
-10 6 -9 40 2 50 7 8 58 -39 58 -52 0 -16 41 -20 111 -11 69 8 162 12 277 9
l72 -1 0 -55 c0 -63 11 -60 -130 -44 -163 17 -304 30 -329 30 -17 -1 -22 3
-17 15 3 9 -23 -10 -59 -41 -67 -59 -80 -85 -45 -85 11 0 28 -4 38 -9 51 -26
212 -43 212 -22 0 5 -9 7 -21 4 -16 -5 -20 -2 -18 12 9 42 109 19 109 -24 0
-17 11 -20 108 -26 59 -3 116 -7 127 -8 17 -2 20 -10 23 -55 3 -55 0 -58 -45
-41 -15 6 -48 13 -73 16 -25 3 -53 9 -62 14 -11 6 -18 6 -18 0 0 -5 -9 -7 -20
-4 -11 3 -20 9 -20 13 0 4 -24 10 -52 13 -29 4 -64 9 -78 11 -110 19 -156 30
-161 38 -3 5 -12 2 -19 -7 -7 -8 -21 -15 -31 -15 -18 0 -19 -19 -19 -549 0
-515 1 -550 18 -554 16 -4 16 -5 0 -6 -15 -1 -18 -10 -18 -51 0 -48 14 -67 26
-35 4 8 11 15 16 15 6 0 8 -7 4 -15 -3 -8 -1 -15 4 -15 6 0 10 5 10 10 0 6 5
10 11 10 5 0 7 -4 4 -10 -3 -5 1 -10 9 -10 9 0 16 7 16 15 0 9 9 15 21 15 16
0 20 -5 16 -20 -6 -25 11 -26 28 -3 12 17 14 17 34 -1 12 -11 21 -15 21 -11 0
5 5 4 12 -3 8 -8 8 -15 -1 -25 -9 -11 -8 -17 5 -28 46 -38 58 -145 23 -216
-11 -24 -24 -43 -29 -43 -4 0 3 21 16 47 13 25 24 63 24 83 0 55 -38 121 -85
147 -63 36 -185 27 -185 -13 0 -12 5 -14 18 -8 97 42 212 -22 212 -119 0 -99
-79 -177 -182 -181 l-48 -1 0 -82 0 -83 1363 0 1363 0 83 40 84 41 -7 108 c-6
86 -4 120 8 162 9 29 17 73 17 98 2 49 10 -33 29 -289 11 -152 14 -169 26
-157 6 6 -11 290 -22 375 -4 28 -2 42 5 42 6 0 11 -8 11 -17 0 -10 9 -36 20
-58 14 -29 22 -81 31 -192 l13 -153 3768 0 3768 0 0 414 c0 322 -3 415 -12
419 -10 4 -10 7 0 18 9 10 12 261 12 1186 l0 1173 -32 1 c-118 3 -230 -15
-285 -48 -25 -14 -47 -32 -50 -39 -3 -8 -11 -14 -19 -14 -8 0 -14 -7 -14 -15
0 -9 -8 -18 -17 -22 -10 -3 -25 -12 -33 -18 -23 -20 -126 -37 -172 -30 -31 6
-39 4 -36 -6 2 -7 17 -14 34 -16 40 -5 123 -32 99 -32 -31 -1 -245 26 -395 50
-74 11 -159 25 -189 29 -72 11 -152 31 -173 42 -11 5 -18 5 -18 0 0 -26 173
-60 685 -138 17 -2 53 -8 80 -14 l50 -9 -57 3 c-67 3 -66 -3 3 -24 59 -18 65
-32 18 -42 -36 -7 -122 -35 -151 -49 -10 -5 -25 -9 -33 -9 -9 0 -13 -4 -10
-10 3 -5 1 -10 -5 -10 -6 0 -24 -29 -39 -64 -21 -45 -36 -65 -52 -69 -13 -4
-37 -19 -54 -35 -30 -27 -93 -62 -114 -62 -6 0 -11 -9 -11 -20 0 -13 -5 -18
-15 -14 -7 3 -30 -6 -49 -21 -26 -19 -48 -27 -85 -28 -29 -1 -51 -7 -51 -13 0
-6 -11 -16 -24 -22 -31 -14 -33 -5 -32 164 1 71 0 112 -2 92 -3 -41 -22 -53
-22 -15 -1 126 -83 551 -142 737 -124 391 -376 837 -633 1120 -61 67 -43 48
-150 160 -49 52 -67 75 -40 50 126 -113 293 -295 355 -387 19 -29 38 -53 41
-53 4 0 41 62 83 138 111 198 239 407 390 632 39 58 114 171 168 253 54 81
101 147 104 147 3 0 -1 -11 -9 -23 -9 -13 -43 -71 -77 -128 -34 -57 -72 -120
-85 -139 -12 -19 -67 -105 -121 -190 -53 -85 -147 -231 -208 -325 -183 -281
-250 -406 -218 -405 4 0 34 48 67 107 66 117 135 224 449 693 115 173 226 339
246 369 l35 55 3 -45 c2 -24 -1 -118 -7 -209 -6 -91 -18 -271 -26 -400 -32
-488 -49 -643 -77 -677 -6 -8 -1 -17 16 -28 14 -10 26 -24 26 -31 0 -11 -31
-14 -157 -15 -87 -1 -224 -4 -305 -8 l-146 -6 32 -55 32 -55 135 2 c74 2 161
-1 194 -5 67 -9 65 -10 -83 -30 -41 -6 -81 -17 -91 -26 -22 -20 -55 -21 -71
-1 -7 8 -23 15 -36 15 -22 0 -21 -3 26 -98 55 -111 108 -237 139 -332 33 -99
21 -93 161 -85 67 4 117 11 110 15 -17 11 40 20 125 20 50 0 75 4 78 13 3 10
11 10 39 0 55 -20 64 -17 65 21 1 19 6 50 12 69 10 28 16 34 33 29 12 -3 26 1
32 9 7 9 34 15 73 16 85 3 103 19 103 95 0 50 3 58 19 58 10 0 41 -16 67 -35
27 -19 59 -42 72 -51 40 -29 35 -7 -7 32 -23 20 -41 41 -41 46 0 4 19 5 43 2
34 -5 55 -18 112 -74 97 -93 142 -125 229 -165 80 -37 86 -39 86 -27 0 4 -16
14 -35 21 -19 7 -35 17 -35 22 0 5 -6 9 -14 9 -20 0 -65 39 -45 40 8 0 19 -4
25 -8 8 -8 83 -32 98 -32 3 0 6 9 6 20 0 12 -8 21 -22 24 -13 3 -61 12 -108
21 -92 18 -145 46 -188 102 -13 19 -23 35 -21 36 2 2 54 -4 116 -12 83 -12
120 -22 142 -39 41 -30 39 -16 -4 32 -19 21 -35 48 -35 60 0 15 6 10 22 -21
25 -49 98 -125 98 -102 0 8 -16 31 -36 50 -62 58 -66 78 -54 257 12 187 32
382 66 627 26 196 30 255 14 255 -7 0 -7 6 0 19 5 11 10 63 10 115 l0 96 -42
0 c-40 1 -42 2 -24 15 26 20 13 19 -109 -5 -123 -24 -199 -49 -283 -95 -68
-38 -212 -141 -212 -152 0 -3 9 2 20 12 23 21 39 12 24 -13 -18 -27 -42 -26
-50 1 -5 24 25 509 46 747 6 58 9 148 8 200 l-2 95 -7 -80 c-5 -56 -5 -39 -3
60 8 292 8 287 13 165 l6 -115 13 154 12 154 58 81 c32 45 95 132 140 194 l82
112 -769 0 c-603 0 -771 -3 -779 -12z m1241 -428 c-3 -12 -8 -19 -11 -16 -5 6
5 36 12 36 2 0 2 -9 -1 -20z m-1531 -260 c52 0 91 -105 53 -144 -17 -17 -20
-36 -5 -36 15 0 11 -42 -6 -65 -10 -14 -13 -32 -8 -61 5 -36 -1 -55 -44 -147
-28 -59 -60 -120 -71 -136 -12 -16 -21 -39 -21 -50 0 -12 -4 -21 -8 -21 -9 0
-14 -9 -100 -174 -31 -60 -64 -114 -73 -119 -13 -8 -35 3 -103 53 -47 34 -86
67 -86 72 0 11 96 195 205 393 40 72 82 152 94 180 12 27 25 52 29 55 4 3 27
44 51 93 25 48 48 82 52 76 10 -17 21 7 15 34 -3 12 -3 16 0 10 3 -7 15 -13
26 -13z m1505 -302 c-3 -8 -6 -5 -6 6 -1 11 2 17 5 13 3 -3 4 -12 1 -19z
m-2240 -444 c-3 -3 -12 -4 -19 -1 -8 3 -5 6 6 6 11 1 17 -2 13 -5z m-26 -19
c44 -10 99 -36 99 -47 0 -5 4 -6 10 -3 5 3 28 -4 51 -15 22 -12 38 -17 35 -12
-3 5 -19 15 -36 22 -16 7 -30 17 -30 22 0 22 238 -137 385 -257 109 -89 357
-340 443 -449 130 -163 347 -520 416 -683 95 -226 177 -526 218 -793 19 -127
16 -557 -5 -687 -28 -172 -96 -425 -118 -438 -5 -4 -9 -15 -9 -25 0 -10 -7
-26 -16 -34 -8 -9 -12 -20 -9 -26 3 -5 -1 -20 -9 -32 -12 -16 -16 -18 -20 -7
-12 39 -12 57 0 74 8 10 14 26 14 36 0 9 9 28 20 42 22 28 26 42 9 31 -8 -5
-8 -1 0 14 6 11 11 29 11 40 0 11 6 25 14 31 9 7 17 42 21 88 4 41 11 70 14
64 4 -6 13 35 19 91 7 57 17 147 23 202 14 118 5 426 -15 536 -13 73 -24 101
-69 187 -27 51 -89 119 -117 128 -11 3 -20 11 -20 17 0 5 -20 31 -45 56 -52
52 -56 76 -30 200 9 40 12 85 9 100 -35 151 -242 543 -371 704 -30 36 -66 84
-81 106 -15 22 -49 64 -76 92 -47 50 -48 52 -41 98 l7 47 -31 -29 -31 -30 -72
70 c-40 38 -93 88 -118 112 -25 24 -82 69 -127 99 -46 30 -83 58 -83 62 0 5
-17 17 -37 26 -21 10 -52 28 -70 42 -18 13 -58 36 -90 51 -63 30 -133 74 -133
83 0 7 46 4 91 -6z m-948 -71 c35 -6 38 -9 32 -34 -3 -16 -1 -31 4 -35 7 -4
11 3 11 17 0 37 28 48 101 38 99 -13 240 -52 372 -102 61 -23 77 -34 77 -50 0
-17 4 -19 30 -13 34 8 157 -46 275 -121 82 -52 82 -54 17 -108 -25 -22 -43
-29 -68 -28 -31 2 -36 -1 -48 -30 -20 -47 -88 -103 -158 -129 -16 -6 -28 -15
-28 -19 0 -5 -19 -20 -42 -34 l-43 -26 -27 83 c-15 45 -27 78 -28 73 0 -5 -11
12 -25 38 -14 26 -23 52 -20 57 4 5 -2 6 -11 2 -14 -5 -16 -3 -10 12 4 11 4
17 1 13 -3 -3 -31 9 -62 28 -31 19 -72 36 -92 40 -20 3 -51 10 -69 16 -18 5
-42 8 -53 5 -10 -3 -22 -1 -25 5 -7 11 80 5 154 -10 23 -5 42 -6 42 -1 0 5
-19 13 -42 20 -46 12 -48 12 -148 23 -110 12 -151 15 -273 22 -64 3 -119 9
-122 13 -3 7 -105 14 -205 15 -25 1 -48 5 -51 9 -3 4 -19 3 -35 -3 -28 -10
-28 -9 -9 6 19 14 16 15 -45 11 -36 -3 -78 -8 -95 -11 l-30 -6 30 15 c28 14
24 15 -77 13 -119 -3 -124 3 -35 49 56 28 249 93 276 93 16 0 18 -6 14 -47 -5
-47 -5 -47 13 -30 10 9 23 34 29 54 9 32 15 38 50 46 106 22 366 34 448 21z
m-1626 -170 c-3 -3 -12 -4 -19 -1 -8 3 -5 6 6 6 11 1 17 -2 13 -5z m863 -34
c0 -13 -11 -13 -30 0 -12 8 -11 10 8 10 12 0 22 -4 22 -10z m4100 -5 c-7 -8
-19 -15 -27 -15 -13 0 -13 3 -3 15 7 8 19 15 27 15 13 0 13 -3 3 -15z m-3952
-2 c-10 -2 -26 -2 -35 0 -10 3 -2 5 17 5 19 0 27 -2 18 -5z m4458 -79 c-4 -18
-11 -34 -16 -34 -8 0 -7 7 6 65 9 40 18 13 10 -31z m-5819 30 c-3 -3 -12 -4
-19 -1 -8 3 -5 6 6 6 11 1 17 -2 13 -5z m5508 -59 c-4 -25 -10 -44 -12 -41 -3
3 -2 26 2 51 3 26 9 45 12 42 2 -3 1 -26 -2 -52z m-2425 -120 c77 -60 95 -81
81 -97 -7 -7 -25 -33 -41 -58 -40 -59 -77 -112 -92 -130 -20 -23 -41 -82 -41
-117 -1 -38 2 -38 -100 -18 -43 8 -91 15 -105 14 -27 -1 -27 -1 3 -9 63 -16
110 -35 110 -45 -1 -17 -68 -44 -110 -44 -53 -1 -108 15 -137 39 l-23 19 53 1
52 0 -21 21 c-16 16 -31 20 -71 18 -45 -3 -53 0 -74 25 -37 43 -31 59 44 114
76 55 193 162 296 270 l69 72 26 -17 c14 -9 51 -35 81 -58z m2407 33 c-3 -8
-6 -5 -6 6 -1 11 2 17 5 13 3 -3 4 -12 1 -19z m298 -84 c-3 -19 -11 -34 -17
-34 -10 0 -5 50 10 95 6 19 7 18 10 -4 2 -13 1 -39 -3 -57z m-5156 -15 c-11
-22 -43 -75 -72 -117 -29 -42 -56 -84 -62 -93 -10 -15 -96 -176 -103 -191 -2
-5 10 -8 27 -8 20 0 31 -5 31 -14 0 -10 -10 -14 -31 -14 -16 1 -36 -5 -44 -13
-18 -19 -82 -214 -96 -293 -20 -119 31 -241 130 -307 l46 -31 130 6 c72 3 231
8 355 12 171 4 245 10 307 25 45 10 135 24 200 29 65 6 179 15 253 21 131 11
555 6 683 -7 56 -6 57 -6 57 20 l0 26 328 0 327 -1 -80 -41 c-44 -22 -81 -41
-82 -42 -1 0 -4 -13 -8 -27 -6 -23 -2 -27 33 -37 29 -9 50 -26 78 -62 41 -54
38 -53 192 -65 l73 -5 92 53 c51 29 104 61 119 71 22 15 29 15 32 5 3 -8 15
-43 27 -78 l23 -64 80 6 c44 4 83 10 87 14 4 5 -3 34 -16 65 -13 31 -21 58
-19 61 2 2 52 -5 110 -16 86 -16 113 -18 137 -9 17 6 32 10 34 8 10 -9 -64
-79 -101 -96 -116 -51 -107 -50 -455 -50 -180 0 -330 -3 -334 -6 -3 -3 -1 -18
5 -33 20 -52 88 -627 88 -747 0 -30 3 -54 6 -54 3 0 89 9 192 20 243 26 454
48 517 54 28 3 58 8 67 11 21 8 33 -40 19 -76 -7 -18 -10 -20 -10 -6 -1 15
-11 11 -58 -23 -38 -27 -60 -37 -67 -30 -12 12 -14 10 50 39 47 21 82 56 70
68 -5 5 -713 -62 -762 -72 -13 -3 -25 -16 -29 -32 -4 -16 -10 -22 -12 -15 -3
6 -12 12 -22 12 -9 0 -22 5 -29 12 -8 8 -12 9 -12 1 0 -6 6 -13 13 -16 8 -3 2
-14 -17 -33 l-29 -29 18 29 c10 18 14 31 8 33 -7 3 -5 19 4 46 16 44 25 349
11 340 -5 -2 -8 9 -8 26 0 43 -37 311 -56 406 -19 92 -48 166 -75 191 -10 9
-19 12 -19 7 0 -6 7 -16 15 -23 38 -32 86 -290 121 -658 17 -178 10 -252 -27
-304 -10 -15 -19 -33 -19 -39 0 -30 -15 6 -16 39 -1 20 1 29 3 20 3 -10 8 -18
12 -18 10 0 33 128 26 140 -4 6 -2 10 3 10 5 0 8 21 6 48 -8 116 -15 198 -19
212 -2 8 -6 46 -10 84 -3 37 -10 91 -16 120 -5 28 -12 71 -15 96 -3 25 -8 54
-11 65 -4 11 -7 27 -9 35 -6 46 -17 88 -31 117 -21 45 -25 37 -8 -14 8 -23 16
-61 18 -85 2 -25 6 -49 9 -54 3 -5 9 -38 13 -74 9 -73 9 -75 30 -183 8 -43 16
-145 17 -227 3 -143 3 -149 -17 -152 -13 -2 -23 -14 -29 -34 -12 -40 -44 -62
-53 -37 -9 24 -23 37 -61 57 -18 9 -32 20 -32 24 0 15 -58 42 -92 43 l-33 1
28 10 c35 13 34 23 -3 38 -16 7 -30 19 -30 26 0 8 -4 14 -10 14 -5 0 -10 9
-10 20 0 12 -6 20 -12 19 -20 -2 -58 12 -58 22 0 5 7 9 15 9 8 0 15 -4 15 -10
0 -5 7 -10 15 -10 21 0 19 20 -2 22 -10 1 -25 2 -33 4 -8 1 -25 2 -37 3 -26 1
-31 26 -7 35 23 9 7 26 -25 26 -22 0 -32 7 -44 33 -27 55 -49 66 -158 79 -75
8 -106 8 -125 -1 -14 -6 -43 -11 -64 -11 -33 0 -40 -3 -40 -20 0 -16 7 -20 30
-20 28 0 30 -2 30 -40 0 -38 2 -40 30 -40 28 0 30 -2 30 -40 0 -22 -4 -40 -10
-40 -5 0 -10 -9 -10 -20 0 -22 35 -29 42 -8 4 10 11 10 33 0 18 -8 25 -16 18
-20 -10 -6 -17 -73 -14 -122 1 -13 2 -13 11 0 9 13 11 13 20 0 5 -8 7 -22 5
-30 -5 -18 3 -31 29 -46 28 -15 31 -34 7 -34 -20 0 -40 -25 -29 -36 3 -2 24
-6 46 -9 39 -4 88 -22 80 -30 -2 -2 -29 -5 -61 -6 -56 -2 -57 -3 -58 -33 -1
-23 -3 -25 -6 -9 -2 12 -10 27 -18 33 -10 9 -14 3 -20 -30 -10 -58 8 -99 41
-92 30 6 31 20 2 24 -14 2 -24 11 -26 23 -2 11 0 16 5 10 4 -5 21 -11 36 -12
22 -1 27 2 23 12 -3 8 -1 15 3 15 5 0 11 -4 13 -9 4 -12 88 -21 88 -9 0 4 5 8
10 8 6 0 10 -7 10 -15 0 -19 -41 -29 -85 -21 -43 8 -46 -8 -10 -42 28 -27 53
-26 69 3 6 11 12 22 14 24 1 3 12 -5 25 -17 15 -14 42 -23 85 -28 34 -3 62
-11 62 -15 0 -5 7 -9 15 -9 8 0 15 -4 15 -10 0 -5 -9 -10 -20 -10 -11 0 -20 6
-20 13 0 8 -3 8 -8 1 -14 -20 -42 -25 -42 -6 -1 16 -1 16 -14 0 -15 -21 -46
-24 -47 -5 0 9 -2 9 -6 0 -6 -17 -53 -17 -54 0 0 9 -2 9 -6 0 -6 -17 -53 -17
-53 0 0 8 -3 9 -8 1 -9 -15 -102 -16 -102 -1 0 8 -4 7 -12 -1 -16 -16 -48 -15
-49 1 0 9 -2 9 -6 0 -6 -15 -43 -18 -43 -3 0 5 -13 7 -30 4 -22 -5 -30 -3 -30
7 0 11 -2 11 -8 1 -9 -14 -42 -6 -42 10 0 6 -6 6 -14 -2 -12 -9 -17 -8 -27 8
-7 11 -20 17 -29 15 -9 -2 -22 3 -29 11 -8 9 -20 16 -28 16 -7 0 -16 6 -19 14
-3 8 -16 17 -30 20 -13 4 -24 13 -24 21 0 8 -5 15 -11 15 -14 0 -79 53 -79 65
0 6 -9 16 -20 23 -12 7 -18 17 -15 22 3 6 -1 10 -9 10 -8 0 -18 10 -22 23 -3
12 -13 30 -22 40 -8 9 -12 20 -9 24 4 3 0 14 -9 24 -9 10 -14 25 -11 33 4 9 2
18 -4 22 -6 3 -9 16 -8 27 1 12 -1 30 -6 40 -4 9 -5 24 -2 32 4 8 2 17 -3 20
-6 4 -10 15 -10 26 0 12 4 17 11 13 6 -3 3 5 -6 19 -9 15 -14 34 -10 46 3 10
1 22 -5 26 -5 3 -10 18 -10 33 0 15 -2 41 -5 57 -2 17 -6 46 -9 65 -2 19 -7
44 -12 55 -6 15 0 13 24 -10 24 -22 28 -31 17 -33 -8 -2 -15 -10 -15 -19 0 -9
6 -13 15 -10 15 6 19 -6 30 -118 9 -81 10 -89 18 -102 4 -6 3 -13 -3 -15 -6
-2 -4 -14 5 -31 17 -32 37 -135 29 -148 -3 -5 0 -9 5 -9 6 0 11 -5 11 -11 0
-16 89 -139 124 -172 17 -15 36 -27 42 -27 6 0 19 -9 30 -21 24 -26 72 -52 84
-44 5 3 13 -2 18 -11 6 -11 27 -18 60 -22 42 -4 53 -1 68 17 23 26 79 29 92 4
7 -12 11 -1 17 45 7 60 2 87 -14 77 -11 -6 -51 29 -51 46 -1 15 -60 49 -85 49
-34 0 -12 20 23 21 l37 2 -40 7 c-22 4 -30 8 -17 9 12 0 22 6 22 11 0 6 7 10
15 10 8 0 15 5 15 10 0 6 -7 10 -15 10 -8 0 -15 -4 -15 -10 0 -5 -7 -10 -15
-10 -18 0 -20 16 -2 23 8 3 6 10 -8 21 -14 12 -16 19 -7 22 20 9 14 44 -8 44
-21 0 -28 24 -10 35 16 10 1 25 -26 25 -17 0 -24 5 -24 20 0 13 -7 20 -20 20
-11 0 -20 -4 -20 -10 0 -5 -9 -10 -20 -10 -13 0 -20 7 -20 20 0 13 7 20 20 20
13 0 20 7 20 20 0 13 -7 20 -20 20 -17 0 -20 7 -20 40 0 22 -4 40 -10 40 -5 0
-10 8 -10 19 0 14 -10 21 -37 26 -21 4 -42 10 -48 15 -5 5 -35 9 -65 11 -73 3
-84 10 -104 66 -9 26 -21 56 -27 65 -12 23 -11 109 1 128 6 10 10 11 10 3 0
-7 9 -13 20 -13 11 0 20 -7 20 -15 0 -8 9 -24 20 -35 13 -13 20 -33 20 -60 0
-50 17 -87 44 -94 11 -3 188 -6 391 -6 313 -1 445 -5 680 -23 30 -2 30 -2 28
48 -3 81 -14 133 -31 148 -13 11 -66 18 -202 27 -102 6 -192 13 -200 16 -8 3
-59 7 -115 10 -67 3 -103 9 -110 18 -6 8 -19 15 -30 17 -14 3 -21 14 -23 34
-5 40 -20 56 -51 55 -44 -3 -51 -1 -51 20 0 20 -22 29 -132 52 -32 7 -58 16
-58 20 0 12 -38 9 -42 -3 -3 -8 -47 -12 -135 -13 -72 -1 -134 -3 -136 -6 -3
-3 -1 -30 4 -60 10 -60 5 -100 -12 -100 -6 0 -8 7 -5 16 3 8 2 13 -3 10 -7 -5
-17 27 -22 69 -1 13 -35 75 -52 98 -15 18 -33 24 -22 7 10 -15 -5 -12 -22 5
-26 26 -25 11 2 -37 23 -41 65 -181 65 -216 0 -28 -10 -6 -19 44 -5 27 -19 75
-31 106 -18 49 -28 61 -68 83 -26 14 -41 21 -34 14 17 -19 15 -29 -7 -29 -11
0 -23 -4 -26 -10 -3 -5 -15 -10 -26 -10 -10 0 -19 -4 -19 -10 0 -5 -7 -10 -15
-10 -21 0 -65 -40 -65 -59 -1 -14 -2 -14 -10 0 -13 23 -128 82 -146 75 -8 -3
-14 -12 -14 -21 0 -12 9 -15 36 -13 23 2 39 -2 41 -10 3 -8 -2 -10 -14 -6 -10
3 -6 -2 10 -11 29 -17 31 -22 18 -44 -8 -12 -44 -13 -208 -9 -191 5 -177 3 82
-17 95 -7 125 -17 125 -40 0 -33 -36 -36 -253 -26 -224 12 -512 13 -487 4 8
-4 20 -13 26 -22 10 -13 14 -13 28 -2 21 17 20 7 0 -25 -50 -76 47 -643 111
-650 58 -5 459 -56 515 -65 142 -22 60 -40 -90 -20 -140 19 -410 45 -415 40
-3 -3 2 -26 11 -51 12 -36 20 -46 38 -46 36 0 222 -35 209 -39 -7 -3 -58 3
-114 12 -56 9 -103 14 -105 12 -10 -10 99 -241 147 -313 34 -49 50 -56 203
-89 66 -14 122 -28 126 -30 4 -2 24 -5 46 -6 54 -2 80 -9 65 -18 -27 -17 8
-41 168 -118 230 -111 274 -118 696 -117 324 1 550 15 595 39 25 13 81 25 206
45 66 10 123 36 205 92 43 29 97 55 150 71 131 39 375 105 474 127 117 26 160
46 185 84 11 17 20 25 20 18 0 -7 -7 -24 -16 -37 -40 -61 48 -175 135 -175 68
0 111 71 149 250 46 214 54 568 18 780 -18 106 -29 135 -60 155 -23 15 -27 14
-100 -24 -42 -23 -78 -41 -81 -41 -3 0 -5 8 -5 19 0 13 14 24 45 35 25 10 45
22 45 27 0 5 -40 9 -90 9 -53 0 -90 4 -90 10 0 6 6 10 13 10 8 0 7 4 -3 10 -8
5 -37 10 -64 10 -27 0 -46 3 -42 7 11 11 377 4 413 -8 41 -13 89 -68 102 -117
37 -137 50 -604 23 -802 -20 -141 -58 -288 -87 -331 -51 -78 -95 -93 -575
-189 -668 -134 -886 -162 -1392 -181 -379 -14 -440 -9 -1018 72 -315 45 -443
70 -499 99 -21 10 -64 47 -96 82 -66 70 -60 50 6 -26 56 -63 148 -123 222
-143 86 -24 107 -48 107 -123 0 -108 37 -165 194 -297 274 -230 623 -409 921
-472 131 -28 365 -59 358 -48 -3 5 4 6 15 3 18 -6 126 -8 172 -4 29 3 85 -33
109 -70 15 -23 26 -57 29 -89 l4 -53 -53 -2 c-63 -1 -48 -2 -197 6 -183 10
-357 35 -416 60 -21 9 -49 16 -61 16 -12 0 -40 7 -61 16 -22 9 -52 20 -69 25
-49 12 -165 57 -230 89 -96 46 -249 131 -265 146 -43 40 -132 96 -167 106 -22
6 -117 92 -193 174 -41 45 -120 131 -175 191 -126 138 -176 196 -216 253 -18
25 -71 86 -118 135 -47 50 -96 104 -109 120 -48 62 -107 175 -177 340 -49 113
-65 158 -114 305 -16 47 -38 105 -49 130 -60 132 -97 409 -89 658 11 305 15
366 31 452 9 47 21 108 25 135 20 118 34 172 52 203 10 18 19 39 19 47 0 14
17 57 49 123 9 19 34 48 56 65 55 44 79 71 129 148 52 78 133 165 161 171 11
2 32 -4 47 -14 l26 -18 -19 -41z m529 -399 c2 -21 -2 -26 -23 -28 -14 -1 -25
2 -25 6 0 4 -3 17 -7 30 -5 21 -3 23 23 20 22 -2 30 -9 32 -28z m-2628 1 c-20
-12 -113 -29 -258 -47 -116 -14 -552 -20 -539 -7 4 3 89 7 189 8 209 3 458 23
538 44 48 12 90 13 70 2z m2863 -10 c9 -1 17 -8 17 -17 0 -14 -3 -14 -15 -4
-10 9 -15 9 -15 1 0 -6 -11 -11 -25 -11 -18 0 -25 5 -25 18 0 13 6 18 23 16
12 -1 30 -3 40 -3z m-366 -13 c-4 -14 -36 -12 -51 3 -6 5 3 9 23 9 22 0 31 -4
28 -12z m4112 -39 c23 -23 40 -43 38 -46 -3 -2 -27 16 -53 41 -27 25 -44 46
-39 46 6 0 30 -18 54 -41z m-151 -41 c-5 -14 -107 -28 -114 -16 -8 13 30 27
74 28 31 0 42 -4 40 -12z m-4061 -14 c4 -10 -1 -22 -10 -29 -10 -7 -17 -18
-17 -26 0 -23 -17 4 -23 39 -6 29 -4 32 19 32 14 0 27 -7 31 -16z m177 -20
c10 -26 7 -31 -16 -30 -24 1 -38 13 -38 34 0 18 47 15 54 -4z m-145 -86 c37
-39 43 -150 8 -156 -34 -7 -66 8 -81 36 -22 42 -29 97 -17 121 16 28 64 28 90
-1z m2487 -86 c29 -44 63 -106 90 -162 14 -29 44 -121 44 -134 0 -6 -7 -1 -15
10 -14 18 -15 17 -8 -11 6 -28 5 -29 -11 -15 -22 17 -44 21 -52 9 -3 -5 -14
-9 -25 -9 -10 0 -27 -9 -36 -20 -17 -19 -43 -26 -55 -15 -14 15 22 56 66 77
28 13 53 22 58 21 4 -2 5 4 2 12 -7 17 -34 21 -34 4 0 -5 -4 -8 -9 -4 -5 3
-13 0 -16 -6 -4 -5 -13 -8 -20 -5 -8 3 -15 1 -17 -3 -5 -15 -133 -71 -136 -60
-3 6 -9 6 -17 -1 -8 -7 -22 -10 -32 -7 -16 4 -15 6 5 12 26 9 28 22 6 53 -9
13 -14 24 -13 26 2 1 31 13 64 26 33 13 64 26 68 30 5 4 -3 36 -17 71 -15 34
-24 70 -21 78 4 14 81 70 95 71 3 0 19 -21 36 -48z m-5453 21 c-23 -2 -64 -2
-90 0 -26 2 -7 3 42 3 50 0 71 -1 48 -3z m67 -9 c0 -8 -4 -12 -10 -9 -5 3 -10
10 -10 16 0 5 5 9 10 9 6 0 10 -7 10 -16z m-380 -4 c0 -5 -4 -10 -10 -10 -5 0
-10 5 -10 10 0 6 5 10 10 10 6 0 10 -4 10 -10z m5168 -30 c34 0 62 -4 62 -10
0 -6 -42 -10 -105 -10 -58 0 -105 4 -105 8 0 18 16 24 50 18 19 -3 63 -6 98
-6z m-7468 -20 c0 -5 -4 -10 -9 -10 -6 0 -13 5 -16 10 -3 6 1 10 9 10 9 0 16
-4 16 -10z m7170 0 c0 -6 -30 -10 -70 -10 -40 0 -70 4 -70 10 0 6 30 10 70 10
40 0 70 -4 70 -10z m603 -11 c-14 -14 -163 -12 -177 2 -6 5 27 9 89 9 74 0 96
-3 88 -11z m107 -5 c0 -8 -5 -12 -10 -9 -6 4 -8 11 -5 16 9 14 15 11 15 -7z
m-832 -29 c-3 -3 -9 2 -12 12 -6 14 -5 15 5 6 7 -7 10 -15 7 -18z m-2974 9
c19 -7 21 -50 4 -57 -22 -8 -58 11 -58 31 0 31 19 40 54 26z m-2949 -31 c13
-16 21 -31 18 -35 -7 -13 -93 -9 -93 4 0 11 38 58 47 58 2 0 15 -12 28 -27z
m4501 6 c3 -5 -1 -9 -8 -10 -7 -1 -30 -3 -50 -4 -23 -3 -38 1 -41 9 -6 15 89
20 99 5z m2334 -32 c0 -7 -8 -17 -17 -22 -24 -14 -171 -11 -185 3 -9 9 13 12
91 12 89 0 102 2 97 16 -3 8 -2 12 4 9 6 -3 10 -12 10 -18z m-4680 -7 c0 -5
-4 -10 -10 -10 -5 0 -10 5 -10 10 0 6 5 10 10 10 6 0 10 -4 10 -10z m140 0 c0
-5 -4 -10 -10 -10 -5 0 -10 5 -10 10 0 6 5 10 10 10 6 0 10 -4 10 -10z m4100
0 c70 -5 21 -7 -187 -8 -183 -1 -283 2 -283 8 0 12 321 12 470 0z m-4512 -7
c-60 -2 -156 -2 -215 0 -60 1 -11 3 107 3 118 0 167 -2 108 -3z m-2801 -29
c-3 -3 -12 -4 -19 -1 -8 3 -5 6 6 6 11 1 17 -2 13 -5z m96 -1 c-13 -2 -33 -2
-45 0 -13 2 -3 4 22 4 25 0 35 -2 23 -4z m9418 -31 c6 -15 10 -28 10 -29 -2
-6 -11 -2 -12 5 0 4 -7 11 -15 15 -8 4 -14 17 -14 28 0 26 18 15 31 -19z
m-4076 -16 c18 -13 18 -14 -6 -27 -13 -8 -24 -21 -24 -29 0 -12 -19 -15 -107
-17 -97 -1 -134 6 -110 21 5 3 52 8 105 12 95 7 97 7 91 30 -5 19 -2 24 13 24
11 0 28 -6 38 -14z m2175 -4 c0 -15 -22 -30 -36 -25 -8 3 -14 1 -14 -5 0 -5
-10 -12 -22 -15 -13 -2 -49 -16 -80 -31 -94 -42 -66 -14 35 36 93 46 117 55
117 40z m-1989 -47 c-1 -6 -5 -10 -11 -9 -5 1 -29 2 -52 4 l-43 3 45 7 c54 8
62 8 61 -5z m-121 -4 c0 -6 -18 -9 -40 -8 -22 1 -40 5 -40 9 0 4 18 8 40 8 22
0 40 -4 40 -9z m2094 -16 c4 -10 -2 -19 -17 -25 -12 -5 -31 -16 -42 -25 -19
-13 -21 -13 -23 9 -1 22 14 34 74 55 1 1 5 -6 8 -14z m-214 -45 c-24 -15 -37
-11 -16 5 11 8 22 12 25 9 3 -3 -1 -9 -9 -14z m225 1 c-3 -6 -14 -11 -23 -11
-15 1 -15 2 2 15 21 16 32 13 21 -4z m-145 -26 c0 -27 -22 -33 -50 -15 -13 9
-12 12 4 25 29 22 46 18 46 -10z m24 0 c-4 -8 -8 -15 -10 -15 -2 0 -4 7 -4 15
0 8 4 15 10 15 5 0 7 -7 4 -15z m243 -7 c-3 -8 -6 -5 -6 6 -1 11 2 17 5 13 3
-3 4 -12 1 -19z m-1832 -28 c3 -5 2 -10 -4 -10 -5 0 -13 5 -16 10 -3 6 -2 10
4 10 5 0 13 -4 16 -10z m195 -150 c0 -5 -5 -10 -11 -10 -5 0 -7 -5 -4 -10 4
-6 2 -17 -5 -25 -8 -9 -8 -15 0 -20 6 -4 8 -16 5 -26 -4 -11 -2 -26 4 -33 6
-7 7 -24 3 -41 -7 -25 -9 -26 -15 -11 -4 10 -3 24 3 31 7 9 8 14 1 17 -6 1
-13 17 -15 33 -2 17 -7 39 -12 49 -5 13 -4 17 3 13 6 -4 14 4 17 18 6 24 26
36 26 15z m47 -6 c-3 -3 -12 -4 -19 -1 -8 3 -5 6 6 6 11 1 17 -2 13 -5z
m-1167 -74 c0 -5 -5 -10 -11 -10 -5 0 -7 5 -4 10 3 6 8 10 11 10 2 0 4 -4 4
-10z m3227 4 c-3 -3 -12 -4 -19 -1 -8 3 -5 6 6 6 11 1 17 -2 13 -5z m-2687
-14 c0 -5 -10 -10 -22 -10 -19 0 -20 2 -8 10 19 13 30 13 30 0z m518 -200 c-1
-32 -25 89 -32 160 -4 37 1 24 14 -40 10 -52 19 -106 18 -120z m-675 193 c-7
-2 -19 -2 -25 0 -7 3 -2 5 12 5 14 0 19 -2 13 -5z m2880 -10 c-13 -2 -33 -2
-45 0 -13 2 -3 4 22 4 25 0 35 -2 23 -4z m-230 -10 c-79 -2 -207 -2 -285 0
-79 1 -15 3 142 3 157 0 221 -2 143 -3z m-2904 -48 c17 -20 31 -42 31 -50 0
-26 -27 -16 -40 15 -7 17 -18 30 -26 30 -16 0 -27 17 -19 30 10 17 22 12 54
-25z m2054 18 l107 -6 11 -38 c21 -68 16 -71 -123 -63 -68 4 -295 7 -505 6
l-383 -2 0 45 c0 25 0 48 0 53 0 4 84 8 187 10 103 2 190 6 193 9 5 6 326 -3
513 -14z m-1743 -14 c0 -6 -4 -7 -10 -4 -5 3 -10 11 -10 16 0 6 5 7 10 4 6 -3
10 -11 10 -16z m-1891 -146 c1 -127 -4 -134 -56 -77 -19 22 -39 34 -47 31 -8
-3 -17 -1 -20 6 -3 9 -7 9 -13 0 -8 -11 -83 -16 -83 -6 0 15 28 29 45 22 33
-13 35 -11 35 41 0 43 3 50 20 50 12 0 20 7 20 16 0 18 23 44 39 44 6 0 11 4
11 10 0 5 7 7 15 4 9 -4 15 0 16 7 1 8 5 3 9 -11 4 -14 8 -76 9 -137z m1837
140 c16 -21 17 -42 4 -63 -8 -13 -11 -12 -24 5 -16 21 -21 57 -9 68 10 10 15
9 29 -10z m3033 -73 c0 -9 -4 -8 -9 5 -5 11 -9 27 -9 35 0 9 4 8 9 -5 5 -11 9
-27 9 -35z m-145 29 c29 -14 41 -38 26 -53 -7 -7 -10 -5 -10 5 0 9 -6 16 -14
16 -8 0 -12 -6 -8 -15 3 -10 0 -13 -9 -10 -8 3 -15 19 -16 36 -1 36 -2 36 31
21z m-463 -50 c-6 -24 -9 -28 -10 -12 -1 24 9 56 16 50 2 -3 0 -20 -6 -38z
m69 -16 c0 -7 -2 -13 -5 -13 -6 0 -35 56 -35 67 1 13 40 -41 40 -54z m230 1
c0 -13 -4 -24 -9 -24 -11 0 -22 40 -15 52 9 15 24 -2 24 -28z m-5526 -6 c14
-18 23 -34 21 -36 -9 -9 -45 11 -46 26 0 13 -2 12 -9 -4 -10 -24 -28 -39 -37
-30 -7 7 28 76 39 76 3 0 18 -14 32 -32z m5376 22 c0 -5 -2 -10 -4 -10 -3 0
-8 5 -11 10 -3 6 -1 10 4 10 6 0 11 -4 11 -10z m-2417 -37 c-7 -2 -21 -2 -30
0 -10 3 -4 5 12 5 17 0 24 -2 18 -5z m2727 -6 c0 7 11 12 25 11 37 -3 27 -30
-12 -34 -29 -3 -33 -1 -33 19 0 18 2 19 10 7 6 -10 10 -11 10 -3z m-2643 -39
c-3 -8 -6 -5 -6 6 -1 11 2 17 5 13 3 -3 4 -12 1 -19z m468 -173 c47 -315 80
-374 301 -541 107 -81 146 -95 296 -105 73 -5 147 -10 163 -10 24 -1 25 -2 7
-6 -12 -2 -20 -9 -17 -14 4 -5 -1 -9 -10 -9 -9 0 -13 5 -10 10 4 6 -6 10 -22
10 -252 3 -325 32 -527 207 -44 37 -82 67 -86 66 -4 -1 -7 3 -7 10 1 7 -11 37
-25 67 -35 73 -100 400 -97 489 1 42 6 16 34 -174z m-791 162 c8 -13 8 -19 0
-25 -7 -4 -13 -16 -15 -26 -2 -11 -8 -18 -13 -17 -5 2 -12 -3 -17 -10 -5 -9
-11 -6 -20 13 -10 22 -9 29 4 43 9 8 13 23 10 31 -8 22 37 15 51 -9z m263 -13
c25 -4 34 -11 42 -37 12 -36 11 -77 -2 -77 -4 0 -6 -4 -3 -9 7 -11 -28 -21
-81 -21 -27 0 -43 5 -44 13 -1 6 -2 28 -3 47 -1 19 -5 49 -10 67 l-7 32 38 -5
c21 -3 52 -7 70 -10z m2477 -5 c-8 -14 -24 -10 -24 6 0 9 6 12 15 9 8 -4 12
-10 9 -15z m424 -179 c0 -62 -2 -68 -7 -34 -4 23 -15 53 -24 67 -9 15 -17 37
-17 49 l1 23 15 -25 c14 -23 14 -20 10 45 l-5 70 14 -60 c8 -33 14 -94 13
-135z m-713 170 c3 -5 2 -10 -4 -10 -5 0 -13 5 -16 10 -3 6 -2 10 4 10 5 0 13
-4 16 -10z m178 -62 c9 2 17 11 17 20 1 15 2 15 11 -1 6 -10 8 -22 4 -25 -4
-4 -46 -8 -93 -9 -48 0 -75 1 -60 4 18 3 25 9 22 18 -8 20 58 25 71 5 6 -9 18
-14 28 -12z m157 10 c0 -19 -2 -20 -10 -8 -6 10 -10 11 -10 3 0 -7 -9 -13 -20
-13 -11 0 -20 2 -20 4 0 2 -3 11 -6 20 -5 13 1 16 30 16 31 0 36 -3 36 -22z
m129 -63 l0 -20 -9 20 c-5 11 -9 27 -9 35 -1 13 0 13 9 0 5 -8 9 -24 9 -35z
m-5609 -14 c0 -49 0 -49 -32 -47 -32 1 -33 3 -36 49 l-3 47 35 0 36 0 0 -49z
m2534 -130 c8 -12 85 -15 123 -5 13 4 20 11 17 19 -4 9 1 12 15 8 11 -3 18
-10 15 -17 -3 -8 14 -16 45 -22 44 -9 50 -8 54 8 3 10 1 21 -4 24 -14 8 -11
24 6 24 22 0 38 -36 26 -59 -9 -16 -7 -20 14 -23 23 -5 25 -2 26 31 0 33 1 34
10 12 5 -13 7 -26 4 -29 -15 -15 78 -62 123 -62 6 0 12 -4 12 -9 0 -10 -98 5
-113 18 -19 15 -125 33 -246 41 -135 8 -140 12 -165 121 -24 105 -18 118 8 18
13 -47 26 -91 30 -98z m2916 139 c0 -5 -7 -10 -15 -10 -8 0 -15 5 -15 10 0 6
7 10 15 10 8 0 15 -4 15 -10z m-1627 -27 c-7 -2 -19 -2 -25 0 -7 3 -2 5 12 5
14 0 19 -2 13 -5z m-903 -19 c0 -2 -12 -4 -26 -4 -14 0 -23 4 -20 9 6 8 46 4
46 -5z m2624 -51 c3 -24 2 -44 -4 -48 -10 -6 -13 5 -11 42 1 11 -2 24 -8 27
-6 4 -7 14 -4 22 8 23 20 5 27 -43z m196 42 c18 -21 4 -85 -18 -85 -16 0 -42
40 -42 65 0 15 21 35 36 35 6 0 17 -7 24 -15z m-1520 -5 c0 -5 -4 -10 -10 -10
-5 0 -10 5 -10 10 0 6 5 10 10 10 6 0 10 -4 10 -10z m-1654 -26 c-3 -8 -1 -25
5 -36 9 -16 8 -19 -7 -16 -37 7 -45 68 -8 68 11 0 14 -5 10 -16z m425 -42 c-7
-2 -7 -12 0 -29 11 -29 4 -42 -12 -26 -6 6 -17 9 -25 6 -17 -6 -31 44 -15 60
8 8 11 8 11 -1 0 -7 5 -12 10 -12 6 0 10 8 10 18 0 29 13 35 23 10 5 -14 4
-24 -2 -26z m2257 -21 c-15 -5 -21 7 -13 26 7 17 8 17 15 -2 4 -11 3 -22 -2
-24z m62 20 c0 -13 -7 -18 -22 -17 -33 1 -35 31 -3 34 18 1 25 -3 25 -17z
m-2790 -32 c0 -5 -10 -9 -21 -9 -18 0 -19 2 -9 15 12 15 30 12 30 -6z m-2502
-48 c3 -8 0 -11 -6 -7 -7 4 -12 -8 -14 -31 -2 -30 -7 -38 -23 -38 -13 0 -21 8
-23 23 -2 15 2 22 12 22 10 0 16 9 16 26 0 18 5 25 17 22 9 -2 18 -9 21 -17z
m1452 -40 c0 4 19 -13 43 -36 41 -42 118 -75 172 -75 20 0 27 -15 62 -122 22
-68 59 -167 82 -220 22 -53 41 -102 41 -107 0 -12 -41 -14 -90 -5 -47 10 -101
71 -117 135 -8 29 -20 67 -28 83 -8 16 -15 33 -15 37 0 19 -53 119 -64 119
-31 1 -97 98 -121 177 -9 32 4 48 21 26 7 -10 14 -15 14 -12z m-2345 -61 c-3
-5 -1 -11 5 -15 5 -3 10 -1 10 4 0 6 9 11 19 11 11 0 22 6 25 13 4 8 8 9 11 1
5 -9 49 -11 91 -3 23 4 32 -3 30 -26 0 -14 -7 -26 -16 -26 -76 -7 -210 -6
-210 2 0 5 6 9 13 10 10 0 10 2 0 6 -7 2 -13 11 -13 18 0 14 20 25 33 18 4 -2
5 -8 2 -13z m443 -8 c3 -20 -1 -22 -37 -22 -32 0 -41 4 -42 18 -1 16 -2 16 -6
0 -5 -21 -23 -26 -93 -26 -51 0 -56 1 -58 22 -1 21 3 23 48 25 41 0 50 -3 51
-17 1 -16 2 -16 6 0 5 20 22 25 83 23 39 0 45 -4 48 -23z m-603 -41 c-4 -27
-2 -66 4 -87 7 -26 7 -34 0 -27 -15 15 -23 85 -15 127 10 54 19 43 11 -13z
m-517 16 c32 0 64 3 70 7 18 11 32 -2 32 -30 0 -21 -4 -24 -27 -22 -16 2 -31
10 -35 18 -6 13 -7 13 -7 -1 -1 -12 -13 -16 -46 -17 -37 -2 -45 1 -46 15 -1
17 -2 17 -6 1 -2 -10 -13 -18 -23 -18 -10 0 -22 -4 -25 -10 -13 -21 -26 -9
-23 23 2 26 7 32 26 31 13 0 22 5 22 14 0 12 3 12 15 2 8 -7 41 -13 73 -13z
m4095 16 c-13 -2 -35 -2 -50 0 -16 2 -5 4 22 4 28 0 40 -2 28 -4z m70 -10 c-7
-2 -19 -2 -25 0 -7 3 -2 5 12 5 14 0 19 -2 13 -5z m-4593 -12 c0 -5 -7 -11
-15 -15 -8 -3 -15 -10 -15 -16 0 -16 22 -12 36 8 10 14 31 17 116 19 57 2 111
4 122 5 13 2 19 -4 21 -23 3 -26 3 -26 -73 -29 -235 -6 -236 -6 -240 13 -2 10
2 24 8 32 14 16 40 20 40 6z m5230 -10 c0 -14 -6 -17 -25 -13 -15 2 -25 0 -25
-7 0 -6 -4 -11 -10 -11 -24 0 -7 28 23 38 17 5 33 10 35 11 1 1 2 -7 2 -18z
m-200 -31 c0 -5 -4 -10 -9 -10 -6 0 -13 5 -16 10 -3 6 1 10 9 10 9 0 16 -4 16
-10z m25 0 c3 -5 1 -10 -4 -10 -6 0 -11 5 -11 10 0 6 2 10 4 10 3 0 8 -4 11
-10z m58 -7 c-7 -2 -19 -2 -25 0 -7 3 -2 5 12 5 14 0 19 -2 13 -5z m1264 -24
c1 -19 1 -20 -4 -4 -3 11 -10 24 -17 28 -7 6 -6 7 4 4 8 -2 16 -14 17 -28z
m1160 -1 c-3 -7 -5 -2 -5 12 0 14 2 19 5 13 2 -7 2 -19 0 -25z m-2382 12 c3
-5 1 -10 -4 -10 -6 0 -11 5 -11 10 0 6 2 10 4 10 3 0 8 -4 11 -10z m1695 -24
c-13 -11 -18 -10 -33 6 -19 20 -18 20 2 13 14 -4 21 -2 21 6 0 10 3 10 12 1
10 -9 9 -15 -2 -26z m-513 -8 c-3 -7 -5 -2 -5 12 0 14 2 19 5 13 2 -7 2 -19 0
-25z m-4309 0 c7 -7 12 -25 12 -40 0 -27 -2 -29 -34 -23 -20 4 -36 2 -40 -4
-12 -19 -24 -12 -31 19 -4 19 -2 36 5 45 15 18 71 20 88 3z m4199 -20 c-3 -7
-5 -2 -5 12 0 14 2 19 5 13 2 -7 2 -19 0 -25z m80 0 c-3 -7 -5 -2 -5 12 0 14
2 19 5 13 2 -7 2 -19 0 -25z m140 0 c-3 -8 -6 -5 -6 6 -1 11 2 17 5 13 3 -3 4
-12 1 -19z m367 -2 c-3 -9 -10 -16 -15 -16 -5 0 -4 9 3 20 14 22 21 20 12 -4z
m-1709 -6 c-3 -5 -12 -10 -18 -10 -7 0 -6 4 3 10 19 12 23 12 15 0z m-505 -10
c0 -5 -8 -25 -17 -45 -18 -39 -49 -50 -38 -14 6 17 4 20 -6 13 -8 -4 0 6 16
23 31 33 45 40 45 23z m2184 -22 c-8 -12 -32 -10 -40 4 -4 7 -3 8 5 4 6 -4 14
0 17 9 5 13 9 14 15 4 4 -7 5 -17 3 -21z m-379 11 c11 -17 -1 -21 -15 -4 -8 9
-8 15 -2 15 6 0 14 -5 17 -11z m-1232 -37 c-6 -26 -25 -30 -21 -4 3 15 19 34
25 29 1 -2 0 -13 -4 -25z m1691 19 c3 -5 -1 -14 -8 -20 -12 -10 -13 -8 -9 8 6
23 9 25 17 12z m361 -10 c-4 -15 1 -19 30 -24 20 -3 59 -4 88 -1 74 6 26 -11
-81 -30 -80 -13 -122 -12 -122 4 0 13 -143 -1 -178 -17 -41 -20 -46 -15 -21
23 19 30 22 31 136 43 64 6 119 14 122 16 13 13 32 3 26 -14z m-489 -17 c-4
-9 -9 -15 -11 -12 -3 3 -3 13 1 22 4 9 9 15 11 12 3 -3 3 -13 -1 -22z m-1601
6 c-3 -5 -14 -10 -23 -9 -14 0 -13 2 3 9 27 11 27 11 20 0z m1568 -10 c-5 -19
-23 -39 -23 -25 0 9 20 45 24 45 2 0 2 -9 -1 -20z m-386 -6 c-3 -3 -12 -4 -19
-1 -8 3 -5 6 6 6 11 1 17 -2 13 -5z m253 -24 c0 -5 -5 -10 -11 -10 -5 0 -7 5
-4 10 3 6 8 10 11 10 2 0 4 -4 4 -10z m90 1 c0 -12 -20 -25 -27 -18 -7 7 6 27
18 27 5 0 9 -4 9 -9z m-50 -21 c0 -5 -8 -10 -17 -10 -15 0 -16 2 -3 10 19 12
20 12 20 0z m164 -25 c-4 -8 -8 -15 -10 -15 -2 0 -4 7 -4 15 0 8 4 15 10 15 5
0 7 -7 4 -15z m-89 -15 c-27 -12 -43 -12 -25 0 8 5 22 9 30 9 10 0 8 -3 -5 -9z
m50 -10 c-3 -5 -11 -10 -16 -10 -6 0 -7 5 -4 10 3 6 11 10 16 10 6 0 7 -4 4
-10z m-105 -4 c0 -2 -9 -6 -20 -9 -11 -3 -18 -1 -14 4 5 9 34 13 34 5z m-5434
-15 c-4 -5 0 -11 6 -14 7 -2 9 -8 5 -13 -4 -5 -12 -2 -17 6 -13 20 -12 30 1
30 5 0 8 -4 5 -9z m5494 -1 c0 -5 -5 -10 -11 -10 -5 0 -7 5 -4 10 3 6 8 10 11
10 2 0 4 -4 4 -10z m-327 -10 c-13 -5 -23 -14 -23 -20 0 -5 -9 -10 -20 -10
-18 0 -19 3 -10 20 7 14 21 20 43 19 29 0 30 -1 10 -9z m60 3 c-7 -2 -19 -2
-25 0 -7 3 -2 5 12 5 14 0 19 -2 13 -5z m50 0 c-7 -2 -19 -2 -25 0 -7 3 -2 5
12 5 14 0 19 -2 13 -5z m-955 -34 c23 -17 42 -32 42 -35 0 -14 -99 43 -100 59
0 14 16 7 58 -24z m759 5 c-3 -3 -12 -4 -19 -1 -8 3 -5 6 6 6 11 1 17 -2 13
-5z m120 0 c-3 -3 -12 -4 -19 -1 -8 3 -5 6 6 6 11 1 17 -2 13 -5z m60 0 c-3
-3 -12 -4 -19 -1 -8 3 -5 6 6 6 11 1 17 -2 13 -5z m-3317 -13 c0 -5 -7 -11
-15 -15 -9 -3 -15 0 -15 9 0 8 7 15 15 15 8 0 15 -4 15 -9z m-1950 -21 c0 -5
-4 -10 -10 -10 -5 0 -10 5 -10 10 0 6 5 10 10 10 6 0 10 -4 10 -10z m20 -19
c0 -5 -20 -11 -45 -13 -54 -4 -61 9 -7 15 20 2 40 4 45 5 4 1 7 -2 7 -7z m67
3 c-3 -3 -12 -4 -19 -1 -8 3 -5 6 6 6 11 1 17 -2 13 -5z m-1602 -14 c4 -6 -7
-10 -27 -10 -25 0 -29 3 -18 10 19 13 37 13 45 0z m-240 -10 c3 -5 -1 -10 -9
-10 -9 0 -16 5 -16 10 0 6 4 10 9 10 6 0 13 -4 16 -10z m1773 -7 c-10 -2 -26
-2 -35 0 -10 3 -2 5 17 5 19 0 27 -2 18 -5z m-51 -29 c-3 -3 -12 -4 -19 -1 -8
3 -5 6 6 6 11 1 17 -2 13 -5z m5552 -21 c-5 -14 -17 -33 -27 -40 -19 -16 -14
-15 42 11 31 14 53 16 101 11 61 -6 61 -7 57 -35 -3 -23 -13 -32 -56 -51 -130
-56 -316 -98 -316 -72 0 6 20 29 45 52 49 45 48 46 -23 30 -32 -6 -62 -7 -83
-1 l-34 9 55 11 55 11 -79 -2 c-60 -2 -80 1 -84 12 -3 10 0 12 13 7 10 -3 23
-2 29 3 6 5 56 16 111 25 55 8 120 22 145 30 61 20 61 20 49 -11z m65 13 c-21
-15 -30 -14 -19 3 3 6 14 11 23 11 13 0 13 -2 -4 -14z m-4714 -10 c0 -8 3 -27
6 -43 6 -29 4 -30 -37 -36 -24 -3 -45 -4 -48 -2 -9 10 -11 79 -2 84 20 12 81
10 81 -3z m3678 -5 c65 -26 205 -41 394 -42 108 -1 138 -4 103 -9 -27 -4 -151
-8 -275 -9 -183 -2 -232 1 -262 13 -42 18 -50 28 -42 50 8 21 23 20 82 -3z
m1182 -15 c0 -3 -4 -8 -10 -11 -5 -3 -10 -1 -10 4 0 6 5 11 10 11 6 0 10 -2
10 -4z m-5470 -14 c0 -9 -29 -49 -49 -69 -22 -21 -25 -22 -53 -7 -20 10 -42
13 -68 9 -29 -5 -39 -3 -43 9 -7 19 19 35 44 29 11 -3 19 -1 19 5 0 18 44 23
57 6 13 -18 43 -12 43 8 0 7 11 13 25 13 14 0 25 -1 25 -3z m4130 -37 l45 -15
-40 6 c-22 3 -47 10 -55 15 -23 13 0 10 50 -6z m395 -16 c175 -2 189 -3 110
-10 -49 -4 -139 -8 -198 -7 -59 0 -111 -2 -114 -6 -4 -3 77 -7 178 -7 159 -1
175 -3 114 -11 -38 -5 -146 -8 -238 -6 -172 3 -186 7 -187 45 0 14 64 21 105
11 16 -5 120 -9 230 -9z m-5715 -8 c0 -5 14 -8 30 -6 33 4 39 -5 15 -25 -12
-10 -18 -10 -30 0 -13 11 -15 7 -15 -29 0 -26 -5 -41 -13 -41 -8 0 -11 14 -9
45 4 40 2 45 -17 45 -18 0 -21 -6 -21 -42 0 -31 3 -39 10 -28 5 8 12 11 16 7
11 -11 -22 -41 -35 -33 -12 8 -15 98 -4 109 10 11 73 8 73 -2z m790 -1 c0 -5
-4 -10 -10 -10 -5 0 -10 5 -10 10 0 6 5 10 10 10 6 0 10 -4 10 -10z m7480 -11
c0 -6 -4 -7 -10 -4 -5 3 -10 11 -10 16 0 6 5 7 10 4 6 -3 10 -11 10 -16z
m-7443 -15 c-3 -3 -12 -4 -19 -1 -8 3 -5 6 6 6 11 1 17 -2 13 -5z m-132 -14
c-3 -5 -10 -10 -16 -10 -5 0 -9 5 -9 10 0 6 7 10 16 10 8 0 12 -4 9 -10z m42
4 c-3 -3 -12 -4 -19 -1 -8 3 -5 6 6 6 11 1 17 -2 13 -5z m-14 -31 c-7 -2 -19
-2 -25 0 -7 3 -2 5 12 5 14 0 19 -2 13 -5z m-47 -92 c-8 -12 -116 -13 -116 -1
0 6 27 10 61 10 33 0 58 -4 55 -9z m-92 -41 c-10 -4 -21 -6 -24 -3 -8 7 24 22
34 16 5 -4 1 -10 -10 -13z m93 14 c-3 -3 -12 -4 -19 -1 -8 3 -5 6 6 6 11 1 17
-2 13 -5z m7193 -38 c0 -18 -17 -29 -30 -21 -8 5 -7 11 1 21 15 18 29 18 29 0z
m-7263 -2 c-3 -3 -12 -4 -19 -1 -8 3 -5 6 6 6 11 1 17 -2 13 -5z m53 -27 c-9
-8 -100 -17 -100 -9 0 4 24 8 52 10 29 2 50 1 48 -1z m7146 -64 c-10 -10 -19
5 -10 18 6 11 8 11 12 0 2 -7 1 -15 -2 -18z m-7704 -48 c0 -5 -5 -11 -11 -13
-6 -2 -11 4 -11 13 0 9 5 15 11 13 6 -2 11 -8 11 -13z m-191 -18 c-13 -13 -26
-3 -16 12 3 6 11 8 17 5 6 -4 6 -10 -1 -17z m67 12 c-2 -6 -8 -10 -13 -10 -5
0 -11 4 -13 10 -2 6 4 11 13 11 9 0 15 -5 13 -11z m62 1 c0 -5 -4 -10 -10 -10
-5 0 -10 5 -10 10 0 6 5 10 10 10 6 0 10 -4 10 -10z m9005 -380 c164 -48 328
-109 298 -110 -7 0 -61 16 -120 36 -60 19 -166 53 -238 75 -71 22 -134 45
-140 51 -7 8 -5 9 5 6 8 -3 96 -29 195 -58z m-7311 -185 c4 -66 3 -102 -2 -90
-13 28 -25 234 -13 215 5 -8 12 -65 15 -125z m-40 -28 c9 -48 26 -226 25 -267
l-1 -35 -9 33 c-6 18 -19 47 -29 65 -16 26 -20 50 -20 135 0 80 3 102 14 102
8 0 16 -14 20 -33z m6479 18 c20 -8 52 -15 71 -15 33 0 63 -19 34 -21 -42 -4
-148 29 -148 45 0 8 4 8 43 -9z m1022 5 c3 -5 -1 -10 -9 -10 -9 0 -16 5 -16
10 0 6 4 10 9 10 6 0 13 -4 16 -10z m-175 -24 c0 -2 -9 -6 -20 -9 -11 -3 -18
-1 -14 4 5 9 34 13 34 5z m-1863 -14 c9 -6 7 -12 -7 -25 -12 -10 -20 -29 -20
-47 0 -21 -4 -28 -14 -24 -8 3 -32 -14 -57 -41 -39 -40 -51 -47 -109 -57 -67
-12 -94 -24 -84 -39 3 -5 -1 -6 -9 -3 -8 3 -18 1 -22 -5 -3 -6 -23 -11 -43
-11 -20 0 -45 -7 -55 -15 -11 -7 -36 -17 -58 -20 -21 -4 -39 -11 -39 -16 0 -5
-10 -9 -22 -9 -12 0 -29 -6 -37 -14 -21 -19 -152 -46 -172 -35 -14 7 -27 55
-31 119 0 8 -4 20 -9 25 -4 6 -2 18 5 27 10 13 27 16 89 15 42 -1 77 1 77 4 0
4 30 12 68 19 37 7 72 17 78 21 6 5 38 14 70 20 33 6 68 19 79 28 11 10 33 18
50 19 16 1 33 9 38 17 4 8 21 15 36 15 16 0 34 6 41 14 16 21 132 34 157 18z
m1703 -32 c0 -5 -2 -10 -4 -10 -3 0 -8 5 -11 10 -3 6 -1 10 4 10 6 0 11 -4 11
-10z m40 -20 c0 -5 -2 -10 -4 -10 -3 0 -8 5 -11 10 -3 6 -1 10 4 10 6 0 11 -4
11 -10z m-7517 -26 c43 -22 85 -62 104 -99 12 -24 5 -20 -37 23 -29 29 -66 60
-81 68 -16 8 -29 17 -29 19 0 8 10 6 43 -11z m7954 10 c-3 -3 -12 -4 -19 -1
-8 3 -5 6 6 6 11 1 17 -2 13 -5z m-8141 -97 c18 -3 24 0 24 14 0 13 7 19 21
19 16 0 19 -4 14 -20 -8 -25 20 -28 29 -4 6 15 8 15 26 -1 11 -10 20 -14 20
-10 0 5 5 4 12 -3 8 -8 8 -15 0 -25 -9 -11 -7 -18 9 -33 33 -30 49 -69 49
-119 0 -45 -25 -123 -36 -112 -3 3 2 19 10 36 58 111 -47 260 -172 245 -137
-16 -209 -154 -141 -272 23 -41 24 -49 2 -31 -25 21 -43 73 -43 123 0 43 24
112 45 129 6 5 3 7 -7 3 -24 -7 -34 12 -11 21 10 4 25 14 33 24 12 13 20 15
34 7 13 -7 21 -5 31 9 8 10 15 23 16 28 1 6 3 3 6 -6 2 -9 15 -19 29 -22z
m6293 16 c-1 -5 0 -10 1 -13 8 -21 7 -41 -3 -37 -14 4 -21 57 -7 57 5 0 9 -3
9 -7z m-6179 -98 c59 -57 63 -138 9 -200 -111 -126 -309 -6 -241 147 22 50 38
66 88 83 49 17 108 4 144 -30z m6125 35 c3 -5 1 -10 -4 -10 -6 0 -11 5 -11 10
0 6 2 10 4 10 3 0 8 -4 11 -10z m152 -15 c0 -22 -14 -18 -20 4 -3 13 0 18 7
15 7 -3 13 -11 13 -19z m-6984 -14 c4 -13 6 -11 12 7 10 31 27 28 23 -5 -2
-20 -9 -29 -25 -31 -13 -2 -23 -8 -23 -13 0 -5 -5 -9 -11 -9 -6 0 -8 9 -3 22
6 20 5 21 -9 9 -14 -11 -18 -11 -23 3 -3 9 -4 22 -1 30 7 18 55 9 60 -13z
m-195 -24 c4 -20 -30 -37 -36 -18 -4 11 -6 11 -13 0 -7 -11 -9 -9 -10 6 l0 20
-8 -20 c-6 -14 -18 -20 -40 -21 -26 0 -31 3 -29 20 2 14 12 20 36 22 19 1 36
4 38 7 12 12 59 0 62 -16z m-269 -18 c-12 -8 -11 -11 1 -19 12 -8 11 -10 -7
-11 -13 -1 -29 -2 -35 -3 -7 -1 -19 2 -25 7 -9 6 -13 5 -13 -4 0 -8 -6 -5 -15
7 -13 16 -14 16 -9 2 4 -12 1 -18 -9 -18 -8 0 -14 9 -13 22 1 18 8 21 54 24
30 1 56 5 59 8 3 3 10 3 15 -1 6 -3 4 -9 -3 -14z m1629 -124 l0 -40 -9 40 c-4
22 -7 65 -7 95 l1 55 7 -55 c5 -30 8 -73 8 -95z m-830 -81 c12 -23 45 -63 74
-88 52 -45 56 -62 8 -29 -89 59 -140 143 -140 231 0 29 6 63 13 75 10 19 13
11 18 -63 3 -59 12 -98 27 -126z m-1050 174 c-2 -17 -10 -23 -28 -23 -14 0
-28 7 -32 15 -6 13 -7 12 -7 -1 -1 -12 -12 -18 -36 -21 -31 -4 -35 -1 -33 16
3 21 48 34 48 13 0 -6 5 -4 11 6 6 11 22 17 45 17 31 0 35 -3 32 -22z m-285
-5 c-16 -45 -45 -73 -75 -73 -34 0 -34 19 1 36 12 6 29 21 37 33 19 26 46 29
37 4z m1909 -105 c-6 -6 -7 0 -4 19 5 21 7 23 10 9 2 -10 0 -22 -6 -28z m5428
6 c0 -8 -4 -12 -10 -9 -5 3 -10 10 -10 16 0 5 5 9 10 9 6 0 10 -7 10 -16z
m-6545 -23 c3 -11 0 -29 -7 -40 -23 -38 -98 -20 -98 23 0 31 7 36 56 36 33 0
44 -4 49 -19z m-1198 -23 c-3 -8 -6 -5 -6 6 -1 11 2 17 5 13 3 -3 4 -12 1 -19z
m51 -107 c-6 -73 -20 -107 -73 -166 l-35 -40 28 50 c43 75 52 110 52 199 1 80
1 80 17 52 11 -22 14 -47 11 -95z m2228 65 c-25 -43 -107 -116 -129 -116 -5 0
8 13 29 28 48 35 100 93 109 122 4 12 9 19 12 16 3 -3 -6 -25 -21 -50z m-1602
28 c22 -8 20 -41 -3 -54 -11 -5 -40 -10 -65 -10 -39 0 -46 3 -46 20 0 11 1 20
3 20 1 0 20 7 42 15 47 17 49 17 69 9z m-667 -96 c-2 -18 -4 -4 -4 32 0 36 2
50 4 33 2 -18 2 -48 0 -65z m1381 -16 c10 -7 10 -15 0 -43 -22 -58 -77 -46
-90 20 -4 22 64 39 90 23z m-138 -41 c0 9 7 16 15 16 9 0 15 -9 15 -22 0 -18
-6 -22 -32 -22 -18 0 -45 -3 -60 -6 -24 -5 -28 -3 -28 18 0 21 4 24 30 21 17
-2 30 1 30 8 0 6 7 2 15 -8 12 -15 15 -16 15 -5z m-321 -32 c-12 -8 -11 -11 1
-20 12 -9 11 -10 -7 -6 -13 3 -25 2 -28 -3 -5 -8 -55 -11 -55 -3 0 2 5 13 11
24 10 20 11 20 24 2 13 -16 14 -16 15 -1 0 9 8 18 18 21 24 5 37 -4 21 -14z
m-955 -31 c-23 -46 -81 -116 -107 -130 -12 -6 2 15 32 47 29 33 60 74 69 92 9
18 17 31 20 29 2 -2 -4 -19 -14 -38z m626 -3 c-9 -10 -9 -15 -1 -15 6 0 11 -5
11 -11 0 -5 -8 -9 -17 -7 -10 1 -23 -1 -30 -5 -6 -4 -14 -3 -18 2 -3 6 -12 8
-20 5 -10 -4 -12 0 -8 15 6 24 14 26 31 9 9 -9 12 -8 12 5 0 12 8 17 26 17 22
0 25 -2 14 -15z m-130 -14 c0 9 7 16 15 16 18 0 21 -43 3 -44 -7 0 -37 -4 -66
-8 -53 -8 -54 -7 -50 16 2 18 9 23 30 24 14 0 30 3 34 7 4 4 13 0 20 -10 12
-15 13 -15 14 -1z"/>
<path d="M6841 5016 c-14 -17 -2 -77 17 -84 8 -2 11 10 7 43 -5 55 -8 61 -24
41z"/>
<path d="M7050 4781 c0 -9 30 -24 36 -18 2 1 -6 8 -16 15 -11 7 -20 8 -20 3z"/>
<path d="M7085 4700 c10 -11 20 -20 23 -20 3 0 -3 9 -13 20 -10 11 -20 20 -23
20 -3 0 3 -9 13 -20z"/>
<path d="M5640 3480 c-113 -4 -254 -8 -314 -9 -60 0 -107 -3 -104 -6 15 -15
179 -45 278 -50 88 -5 133 -3 190 10 41 9 89 18 105 21 17 3 40 10 53 16 24
12 30 29 10 26 -7 -1 -105 -5 -218 -8z"/>
<path d="M5333 3333 c31 -2 83 -2 115 0 31 2 5 3 -58 3 -63 0 -89 -1 -57 -3z"/>
<path d="M4963 3263 c-45 -68 -7 -396 78 -681 39 -132 98 -296 104 -290 2 2
-21 75 -50 163 -112 337 -169 711 -121 803 20 39 13 42 -11 5z"/>
<path d="M7841 3084 c0 -11 3 -14 6 -6 3 7 2 16 -1 19 -3 4 -6 -2 -5 -13z"/>
<path d="M7851 3024 c0 -11 3 -14 6 -6 3 7 2 16 -1 19 -3 4 -6 -2 -5 -13z"/>
<path d="M7871 2844 c0 -11 3 -14 6 -6 3 7 2 16 -1 19 -3 4 -6 -2 -5 -13z"/>
<path d="M7050 2570 c0 -5 5 -10 10 -10 6 0 10 5 10 10 0 6 -4 10 -10 10 -5 0
-10 -4 -10 -10z"/>
<path d="M5150 2275 c0 -5 5 -17 10 -25 5 -8 10 -10 10 -5 0 6 -5 17 -10 25
-5 8 -10 11 -10 5z"/>
<path d="M5180 2206 c0 -11 97 -199 115 -221 8 -11 -13 34 -47 100 -65 127
-68 133 -68 121z"/>
<path d="M8090 1819 c-138 -21 -334 -67 -317 -74 41 -17 396 47 405 73 4 13
-6 13 -88 1z"/>
<path d="M7660 1760 c-8 -5 -12 -11 -9 -15 9 -8 69 7 63 16 -7 12 -35 11 -54
-1z"/>
<path d="M5860 4170 c0 -5 5 -10 11 -10 5 0 7 5 4 10 -3 6 -8 10 -11 10 -2 0
-4 -4 -4 -10z"/>
<path d="M5800 4020 c0 -5 5 -10 10 -10 6 0 10 5 10 10 0 6 -4 10 -10 10 -5 0
-10 -4 -10 -10z"/>
<path d="M5627 3933 c-19 -18 4 -108 32 -123 30 -16 44 3 36 50 -9 54 -47 95
-68 73z"/>
<path d="M8256 3627 c3 -10 9 -15 12 -12 3 3 0 11 -7 18 -10 9 -11 8 -5 -6z"/>
<path d="M4144 3759 c-3 -6 -1 -16 5 -22 8 -8 11 -5 11 11 0 24 -5 28 -16 11z"/>
<path d="M4170 3751 c0 -12 5 -21 10 -21 6 0 10 6 10 14 0 8 -4 18 -10 21 -5
3 -10 -3 -10 -14z"/>
<path d="M1190 3730 c0 -5 7 -10 15 -10 8 0 15 5 15 10 0 6 -7 10 -15 10 -8 0
-15 -4 -15 -10z"/>
<path d="M6600 3140 c0 -8 5 -22 10 -30 9 -13 10 -13 10 0 0 8 -5 22 -10 30
-9 13 -10 13 -10 0z"/>
<path d="M6721 3123 c-10 -26 -10 -27 4 -9 8 11 15 23 15 28 0 15 -7 8 -19
-19z"/>
<path d="M6801 3143 c0 -4 4 -17 9 -28 8 -19 9 -19 9 2 1 12 -3 25 -9 28 -5 3
-10 3 -9 -2z"/>
<path d="M6870 3135 c0 -8 4 -15 10 -15 5 0 7 7 4 15 -4 8 -8 15 -10 15 -2 0
-4 -7 -4 -15z"/>
<path d="M6911 3124 c0 -11 3 -14 6 -6 3 7 2 16 -1 19 -3 4 -6 -2 -5 -13z"/>
<path d="M7012 3120 c0 -14 2 -19 5 -12 2 6 2 18 0 25 -3 6 -5 1 -5 -13z"/>
<path d="M7146 3127 c3 -10 9 -15 12 -12 3 3 0 11 -7 18 -10 9 -11 8 -5 -6z"/>
<path d="M5661 3104 c0 -11 3 -14 6 -6 3 7 2 16 -1 19 -3 4 -6 -2 -5 -13z"/>
<path d="M5560 2946 c0 -2 7 -7 16 -10 8 -3 12 -2 9 4 -6 10 -25 14 -25 6z"/>
<path d="M5838 2843 c7 -3 16 -2 19 1 4 3 -2 6 -13 5 -11 0 -14 -3 -6 -6z"/>
<path d="M5813 2823 c9 -2 25 -2 35 0 9 3 1 5 -18 5 -19 0 -27 -2 -17 -5z"/>
<path d="M5798 2803 c6 -2 18 -2 25 0 6 3 1 5 -13 5 -14 0 -19 -2 -12 -5z"/>
<path d="M2850 2797 c0 -26 4 -33 20 -33 13 0 19 5 15 14 -3 7 -5 22 -5 33 0
10 -7 19 -15 19 -10 0 -15 -10 -15 -33z"/>
<path d="M8595 2730 c-8 -13 5 -13 25 0 13 8 13 10 -2 10 -9 0 -20 -4 -23 -10z"/>
<path d="M8608 2703 c7 -3 16 -2 19 1 4 3 -2 6 -13 5 -11 0 -14 -3 -6 -6z"/>
<path d="M2865 2540 c-3 -5 -1 -10 4 -10 6 0 11 5 11 10 0 6 -2 10 -4 10 -3 0
-8 -4 -11 -10z"/>
<path d="M2165 2470 c3 -5 10 -10 16 -10 5 0 9 5 9 10 0 6 -7 10 -16 10 -8 0
-12 -4 -9 -10z"/>
<path d="M2410 2479 c0 -5 5 -7 10 -4 6 3 10 8 10 11 0 2 -4 4 -10 4 -5 0 -10
-5 -10 -11z"/>
<path d="M2885 2350 c-4 -6 5 -10 20 -10 15 0 24 4 20 10 -3 6 -12 10 -20 10
-8 0 -17 -4 -20 -10z"/>
<path d="M2893 2313 c9 -2 25 -2 35 0 9 3 1 5 -18 5 -19 0 -27 -2 -17 -5z"/>
<path d="M2930 1940 c0 -5 5 -10 10 -10 6 0 10 5 10 10 0 6 -4 10 -10 10 -5 0
-10 -4 -10 -10z"/>
<path d="M2465 730 c-3 -5 -1 -10 4 -10 6 0 11 5 11 10 0 6 -2 10 -4 10 -3 0
-8 -4 -11 -10z"/>
<path d="M2323 661 c-85 -53 -86 -183 -2 -227 15 -7 49 -14 75 -14 41 0 51 5
85 39 35 35 39 44 39 90 0 44 -5 56 -33 87 -28 31 -41 37 -83 41 -37 3 -57 -1
-81 -16z m107 -83 c0 -13 3 -33 6 -45 4 -14 2 -23 -5 -23 -6 0 -11 13 -11 29
0 16 -5 31 -12 33 -6 2 -8 10 -4 16 12 19 26 14 26 -10z m-53 -3 c3 -9 -3 -25
-12 -35 -17 -19 -17 -20 4 -20 12 0 19 -4 16 -10 -3 -5 -17 -10 -31 -10 -27 0
-32 21 -9 40 8 7 15 16 15 21 0 5 -7 9 -15 9 -8 0 -15 5 -15 10 0 16 40 11 47
-5z"/>
<path d="M1551 454 c0 -11 3 -14 6 -6 3 7 2 16 -1 19 -3 4 -6 -2 -5 -13z"/>
<path d="M995 400 c-3 -5 -1 -10 4 -10 6 0 11 5 11 10 0 6 -2 10 -4 10 -3 0
-8 -4 -11 -10z"/>
<path d="M2886 5961 c-21 -22 -26 -37 -26 -78 0 -83 12 -203 21 -203 5 0 13
18 19 40 6 21 17 46 25 54 8 8 15 22 15 30 0 12 10 16 39 16 22 0 42 5 44 13
4 9 8 8 16 -3 5 -8 14 -11 18 -6 4 5 2 11 -4 13 -20 7 -15 23 7 23 11 0 20 -6
20 -14 0 -7 8 -16 19 -19 16 -4 19 3 25 58 10 98 8 100 -110 102 -99 1 -102 1
-128 -26z"/>
<path d="M10263 5733 c9 -2 23 -2 30 0 6 3 -1 5 -18 5 -16 0 -22 -2 -12 -5z"/>
<path d="M10175 5720 c-8 -13 15 -13 35 0 12 8 11 10 -7 10 -12 0 -25 -4 -28
-10z"/>
<path d="M10105 5714 c-11 -2 -50 -6 -88 -9 -37 -4 -65 -10 -63 -14 5 -7 133
6 181 19 29 8 11 10 -30 4z"/>
<path d="M6362 5509 c-18 -12 -32 -23 -30 -24 2 -2 53 1 113 5 61 5 124 10
140 10 47 2 -80 29 -140 29 -34 1 -60 -6 -83 -20z"/>
<path d="M880 4480 c0 -12 -20 -12 400 -11 396 1 390 1 330 12 -68 12 -730 11
-730 -1z"/>
<path d="M130 4470 c-102 -4 -60 -6 173 -8 203 -1 306 1 302 8 -7 11 -233 11
-475 0z"/>
<path d="M1915 4469 c-7 -10 201 -18 698 -25 296 -4 447 -3 447 4 0 6 -140 12
-387 16 -214 3 -470 8 -571 9 -101 2 -185 0 -187 -4z"/>
<path d="M9350 4339 c0 -5 5 -7 10 -4 6 3 10 8 10 11 0 2 -4 4 -10 4 -5 0 -10
-5 -10 -11z"/>
<path d="M9395 4300 c3 -5 8 -10 11 -10 2 0 4 5 4 10 0 6 -5 10 -11 10 -5 0
-7 -4 -4 -10z"/>
<path d="M4570 4000 c0 -5 4 -10 9 -10 6 0 13 5 16 10 3 6 -1 10 -9 10 -9 0
-16 -4 -16 -10z"/>
<path d="M10180 3646 c0 -3 18 -22 40 -42 22 -20 39 -44 38 -53 -2 -10 5 -17
20 -19 14 -2 22 2 22 11 0 10 7 13 20 10 28 -7 25 7 -6 34 -18 15 -34 21 -49
17 -15 -4 -32 3 -53 21 -18 15 -32 24 -32 21z"/>
<path d="M1595 3560 c-795 -12 -1539 -32 -1570 -41 -33 -10 801 -5 1670 11
292 5 781 12 1088 16 307 4 552 11 545 15 -15 10 -1050 9 -1733 -1z"/>
<path d="M10145 3560 c-16 -4 -52 -9 -80 -10 -41 -2 -45 -4 -21 -9 40 -9 186
2 189 14 3 13 -48 16 -88 5z"/>
<path d="M3458 3553 c45 -2 119 -2 165 0 45 1 8 3 -83 3 -91 0 -128 -2 -82 -3z"/>
<path d="M9823 3543 c9 -2 23 -2 30 0 6 3 -1 5 -18 5 -16 0 -22 -2 -12 -5z"/>
<path d="M4403 3480 c9 -13 17 -40 17 -60 0 -48 -69 -128 -120 -140 l-35 -8
41 -1 c48 -1 81 24 113 86 24 48 19 103 -12 130 -20 18 -21 18 -4 -7z"/>
<path d="M4440 3440 c0 -5 5 -10 11 -10 5 0 7 5 4 10 -3 6 -8 10 -11 10 -2 0
-4 -4 -4 -10z"/>
<path d="M2773 3273 c9 -2 23 -2 30 0 6 3 -1 5 -18 5 -16 0 -22 -2 -12 -5z"/>
<path d="M632 2870 c0 -14 2 -19 5 -12 2 6 2 18 0 25 -3 6 -5 1 -5 -13z"/>
<path d="M9303 2805 c0 -27 2 -38 4 -22 2 15 2 37 0 50 -2 12 -4 0 -4 -28z"/>
<path d="M2029 2103 c12 -18 24 -33 27 -33 9 0 -15 37 -33 51 -12 10 -11 5 6
-18z"/>
<path d="M2068 2103 c7 -3 16 -2 19 1 4 3 -2 6 -13 5 -11 0 -14 -3 -6 -6z"/>
<path d="M1988 2093 c7 -3 16 -2 19 1 4 3 -2 6 -13 5 -11 0 -14 -3 -6 -6z"/>
<path d="M1948 2043 c7 -3 16 -2 19 1 4 3 -2 6 -13 5 -11 0 -14 -3 -6 -6z"/>
<path d="M1888 1993 c7 -3 16 -2 19 1 4 3 -2 6 -13 5 -11 0 -14 -3 -6 -6z"/>
<path d="M140 1981 c0 -10 19 -25 25 -20 1 2 -3 10 -11 17 -8 7 -14 8 -14 3z"/>
<path d="M1787 1933 c18 -2 50 -2 70 0 21 2 7 4 -32 4 -38 0 -55 -2 -38 -4z"/>
<path d="M1768 1883 c7 -3 16 -2 19 1 4 3 -2 6 -13 5 -11 0 -14 -3 -6 -6z"/>
<path d="M1818 1883 c12 -2 30 -2 40 0 9 3 -1 5 -23 4 -22 0 -30 -2 -17 -4z"/>
<path d="M286 1805 c4 -8 10 -15 15 -15 16 0 9 -18 -8 -23 -17 -4 -17 -5 0 -6
23 -1 33 25 17 44 -16 19 -31 19 -24 0z"/>
<path d="M5 1800 c-3 -6 1 -7 9 -4 18 7 21 14 7 14 -6 0 -13 -4 -16 -10z"/>
<path d="M175 520 c-3 -5 -1 -10 4 -10 6 0 11 5 11 10 0 6 -2 10 -4 10 -3 0
-8 -4 -11 -10z"/>
<path d="M37 458 c-36 -10 -37 -12 -37 -54 0 -42 1 -44 25 -38 36 9 44 -20 15
-52 l-23 -24 24 1 c14 0 33 12 47 30 23 29 23 29 3 29 -26 0 -27 16 -2 23 19
4 41 -9 41 -25 0 -4 -10 -16 -22 -28 l-22 -20 22 0 c12 0 22 -4 22 -10 0 -5
-12 -10 -27 -10 -16 0 -45 -3 -66 -6 -36 -6 -37 -8 -37 -50 l0 -44 40 0 c56 0
99 20 137 63 42 48 51 95 27 143 -33 66 -93 92 -167 72z"/>
<path d="M11 341 c-7 -5 -11 -16 -9 -26 3 -16 5 -15 21 3 19 21 11 37 -12 23z"/>
</g>
</svg>
